<svg width="40" height="40" viewBox="0 0 40 40" fill="none" xmlns="http://www.w3.org/2000/svg">
<path fill-rule="evenodd" clip-rule="evenodd" d="M22.4056 1.00067C21.0074 0.270943 19.1128 0.259683 17.7035 0.987532C12.3015 3.77741 7.40176 6.97623 3.10806 10.5242C2.44409 11.0728 1.97288 11.8701 1.98092 12.8085C1.98893 13.7431 2.46972 14.5297 3.12966 15.0693C7.38769 18.5509 12.2915 21.7526 17.5946 24.5204C18.9927 25.2501 20.8873 25.2614 22.2966 24.5335C27.6986 21.7437 32.5984 18.5448 36.8921 14.9969C37.556 14.4483 38.0272 13.651 38.0192 12.7126C38.0112 11.778 37.5304 10.9914 36.8705 10.4518C32.6124 6.97016 27.7087 3.76846 22.4056 1.00067ZM19.1375 3.7641C19.6368 3.50624 20.457 3.50868 20.9596 3.77105C26.0208 6.41254 30.6841 9.4515 34.7242 12.7339C30.66 16.0692 26.0105 19.0983 20.8627 21.757C20.3634 22.0148 19.5432 22.0124 19.0405 21.75C13.9794 19.1085 9.31601 16.0696 5.27595 12.7871C9.34013 9.45188 13.9896 6.42273 19.1375 3.7641Z" fill="#7000FF"/>
<path d="M39.1605 20.4543C39.6175 21.1863 39.3946 22.1502 38.6626 22.6072L25.9392 30.5507C24.2127 31.6287 22.0706 32.127 19.9999 32.1272C17.9292 32.1273 15.787 31.6292 14.0602 30.5515L1.47617 22.6978C0.744098 22.241 0.521013 21.2771 0.977897 20.545C1.43478 19.813 2.39862 19.5899 3.13069 20.0468L15.7147 27.9004C16.8484 28.6079 18.3883 29.0023 19.9997 29.0022C21.611 29.0021 23.1509 28.6075 24.2843 27.8999L37.0077 19.9564C37.7397 19.4994 38.7035 19.7223 39.1605 20.4543Z" fill="#7000FF"/>
<path d="M39.1604 28.2765C39.6175 29.0085 39.3947 29.9724 38.6628 30.4295L27.6442 37.3104C25.4408 38.6864 22.6846 39.3338 19.9998 39.334C17.315 39.3341 14.5586 38.6871 12.3549 37.3114L1.47601 30.5201C0.743993 30.0631 0.521025 29.0992 0.977997 28.3672C1.43497 27.6352 2.39884 27.4122 3.13085 27.8692L14.0097 34.6605C15.6202 35.6658 17.7742 36.2091 19.9996 36.209C22.225 36.2088 24.3788 35.6653 25.9889 34.6598L37.0075 27.7789C37.7394 27.3218 38.7034 27.5446 39.1604 28.2765Z" fill="#7000FF"/>
</svg>
